<?xml version="1.0" standalone="no"?>
<!DOCTYPE svg PUBLIC "-//W3C//DTD SVG 20010904//EN"
 "http://www.w3.org/TR/2001/REC-SVG-20010904/DTD/svg10.dtd">
<svg version="1.0" xmlns="http://www.w3.org/2000/svg"
 width="1028.000000pt" height="1040.000000pt" viewBox="0 0 1028.000000 1040.000000"
 preserveAspectRatio="xMidYMid meet">

<g transform="translate(0.000000,1040.000000) scale(0.100000,-0.100000)"
fill="#000000" stroke="none">
<path d="M730 8295 l0 -1185 183 0 c289 0 623 -46 767 -104 166 -68 290 -203
346 -380 l25 -81 5 -770 c3 -423 1 -1065 -4 -1425 -9 -627 -10 -658 -30 -720
-34 -104 -78 -166 -180 -256 -105 -92 -171 -131 -287 -167 -153 -48 -276 -61
-563 -62 l-262 0 2 -1165 3 -1165 225 2 c661 7 1191 98 1530 264 232 113 467
294 636 490 l76 88 87 -77 c292 -257 686 -513 954 -620 201 -80 429 -128 670
-139 l137 -6 0 1124 0 1124 -99 43 c-314 136 -484 321 -556 606 l-25 99 11
856 c12 969 7 2276 -10 2451 -32 326 -76 556 -151 782 -104 314 -263 567 -530
842 -212 218 -399 356 -645 477 -257 125 -496 184 -880 219 -210 18 -819 40
-1132 40 l-303 0 0 -1185z"/>
<path d="M8705 9469 c-816 -33 -1086 -80 -1430 -248 -246 -121 -433 -259 -645
-477 -267 -275 -426 -528 -530 -842 -75 -226 -119 -456 -151 -782 -17 -175
-22 -1482 -10 -2451 l11 -856 -25 -99 c-72 -285 -242 -470 -556 -606 l-99 -43
0 -1124 0 -1124 138 6 c240 11 468 59 669 139 268 107 662 363 954 620 l87 77
76 -88 c169 -196 404 -377 636 -490 339 -166 869 -257 1530 -264 l225 -2 3
1165 2 1165 -262 0 c-287 1 -410 14 -563 62 -116 36 -182 75 -287 167 -102 90
-146 152 -180 256 -20 62 -21 93 -30 720 -5 360 -7 1002 -4 1425 l5 770 25 81
c56 177 180 312 346 380 144 58 478 104 768 104 l182 0 0 1185 0 1185 -347 -2
c-192 0 -433 -5 -538 -9z"/>
</g>
</svg>
